<svg width="47" height="47" xmlns="http://www.w3.org/2000/svg" xmlns:xlink="http://www.w3.org/1999/xlink" xml:space="preserve" overflow="hidden"><g transform="translate(-224 -318)"><path d="M236.24 341.5C236.24 340.689 236.897 340.031 237.708 340.031L253.747 340.031 249.4 335.684C248.847 335.09 248.879 334.161 249.473 333.608 250.037 333.082 250.911 333.082 251.475 333.608L258.33 340.462C258.902 341.036 258.902 341.964 258.33 342.538L251.475 349.392C250.882 349.945 249.953 349.912 249.4 349.319 248.874 348.755 248.874 347.88 249.4 347.316L253.747 342.969 237.708 342.969C236.897 342.969 236.24 342.311 236.24 341.5Z" fill="#FFFFFF"/><path d="M266.104 341.5C266.104 331.225 257.775 322.896 247.5 322.896 237.225 322.896 228.896 331.225 228.896 341.5 228.896 351.775 237.225 360.104 247.5 360.104 257.775 360.104 266.104 351.775 266.104 341.5ZM263.167 341.5C263.167 350.152 256.152 357.167 247.5 357.167 238.848 357.167 231.833 350.152 231.833 341.5 231.833 332.848 238.848 325.833 247.5 325.833 256.152 325.833 263.167 332.848 263.167 341.5Z" fill="#FFFFFF"/></g></svg>