<svg width="30" height="29" xmlns="http://www.w3.org/2000/svg" xmlns:xlink="http://www.w3.org/1999/xlink" xml:space="preserve" overflow="hidden"><g transform="translate(-237 -695)"><path d="M24.7708 25.2542 18.7292 19.5146 24.7708 13.775 24.7708 25.2542ZM5.19583 25.9792 11.1771 20.3302 11.6 19.9375C13.2312 18.3969 15.799 18.3969 17.4302 19.9375L17.8531 20.3302 23.8042 25.9792 5.19583 25.9792ZM4.22917 13.7448 10.2708 19.4844 4.22917 25.224 4.22917 13.7448ZM8.45833 6.04167 20.5417 6.04167 20.5417 16.101 17.8229 18.699C15.8594 17.1885 13.1406 17.1885 11.1771 18.699L8.45833 16.101 8.45833 6.04167ZM22.3542 6.85729 22.3542 4.22917 18.125 4.22917 14.5 1.20833 10.875 4.22917 6.64583 4.22917 6.64583 6.8875 2.41667 10.9052 2.41667 27.7917 26.5833 27.7917 26.5833 10.9052 22.3542 6.85729Z" fill="#002060" transform="matrix(1.03448 0 0 1 237 695)"/><path d="M14.5 12.7781C13.9563 12.7781 13.5333 12.325 13.5333 11.8115 13.5333 11.2677 13.9865 10.8448 14.5 10.8448 15.0437 10.8448 15.4667 11.2677 15.4667 11.8115 15.4667 12.3552 15.0437 12.7781 14.5 12.7781ZM14.5 15.7083C15.1948 15.7083 15.8594 15.5271 16.4635 15.225 16.7052 15.074 16.7958 14.7719 16.675 14.5302 16.524 14.2885 16.2219 14.1979 15.9802 14.3188 15.5271 14.5604 15.0135 14.6812 14.5 14.6812 12.899 14.6812 11.5698 13.3521 11.6 11.751 11.6 10.15 12.9292 8.82083 14.5302 8.82083 16.1313 8.82083 17.4604 10.1198 17.4604 11.751L17.4604 12.7177C16.9167 12.7177 16.4937 12.2948 16.4937 11.751 16.4937 10.7844 15.8292 9.96875 14.8927 9.7875 13.9563 9.60625 13.0198 10.1198 12.6875 10.9958 12.3552 11.8719 12.6875 12.899 13.5031 13.3823 14.3188 13.8656 15.376 13.7146 16.0104 12.9896 16.3729 13.4125 16.9167 13.6542 17.4906 13.6542 18.0344 13.6542 18.4573 13.2312 18.4573 12.6875L18.4573 11.7208C18.4573 9.54583 16.7052 7.79375 14.5302 7.79375 12.3552 7.79375 10.6031 9.54583 10.6031 11.7208 10.5729 13.926 12.325 15.6781 14.5 15.7083Z" fill="#002060" transform="matrix(1.03448 0 0 1 237 695)"/></g></svg>