<svg width="31" height="31" xmlns="http://www.w3.org/2000/svg" xmlns:xlink="http://www.w3.org/1999/xlink" xml:space="preserve" overflow="hidden"><g transform="translate(-236 -659)"><path d="M248.658 668.429C248.917 668.171 249.078 667.816 249.078 667.428 249.078 667.041 248.917 666.685 248.658 666.427L244.202 662.003C243.944 661.745 243.589 661.583 243.233 661.583 242.878 661.583 242.491 661.745 242.232 662.003L241.748 662.487 248.174 668.914 248.658 668.429Z" fill="#002060"/><path d="M255.149 679.828C255.02 679.957 254.826 680.022 254.665 680.022 254.503 680.022 254.309 679.957 254.18 679.828L246.172 671.852C246.043 671.723 245.978 671.529 245.978 671.368 245.978 671.206 246.043 671.013 246.172 670.883L247.173 669.915 240.747 663.489C240.327 663.908 239.94 664.296 239.681 664.554 239.035 665.168 238.648 665.975 238.616 666.847 238.519 668.3 238.874 669.689 239.358 671.045 239.875 672.24 240.553 673.37 241.296 674.435 243.944 678.407 247.27 681.862 251.145 684.607 251.791 685.092 252.469 685.511 253.179 685.899 254.794 686.706 256.505 687.287 258.346 687.417 259.573 687.514 260.8 687.029 261.64 686.125L262.511 685.253 256.118 678.827 255.149 679.828Z" fill="#002060"/><path d="M263.997 681.798 259.541 677.342C259.282 677.083 258.927 676.922 258.54 676.922 258.152 676.922 257.797 677.083 257.539 677.342L257.054 677.858 263.48 684.284 263.965 683.8C264.223 683.542 264.384 683.186 264.384 682.799 264.384 682.411 264.255 682.056 263.997 681.798Z" fill="#002060"/></g></svg>