<svg width="54" height="55" xmlns="http://www.w3.org/2000/svg" xmlns:xlink="http://www.w3.org/1999/xlink" xml:space="preserve" overflow="hidden"><g transform="translate(-482 -1244)"><path d="M43.4081 27.7819C46.2041 27.7819 48.4706 25.5153 48.4706 22.7194 48.4706 19.9234 46.2041 17.6569 43.4081 17.6569 40.6122 17.6569 38.3456 19.9234 38.3456 22.7194 38.3462 22.9737 38.3669 23.2276 38.4075 23.4788L32.5519 25.9256C31.5017 24.0725 29.6657 22.7975 27.5625 22.4606L27.5625 16.1719C30.2885 15.5505 31.9947 12.837 31.3734 10.1109 30.7521 7.38495 28.0385 5.67872 25.3125 6.30006 22.5865 6.92134 20.8803 9.63495 21.5016 12.3609 21.934 14.2581 23.4154 15.7395 25.3125 16.1719L25.3125 22.455C23.229 22.7919 21.4073 24.0477 20.3512 25.875L14.6531 23.4956C15.0803 20.7325 13.1866 18.1462 10.4235 17.7191 7.66041 17.2919 5.07417 19.1856 4.647 21.9487 4.21982 24.7118 6.11347 27.2981 8.87659 27.7252 10.787 28.0205 12.6987 27.2023 13.8038 25.6163L19.5525 27.9675C19.1449 29.9364 19.6039 31.9856 20.8125 33.5925L16.1606 38.2894C13.7812 36.8211 10.6621 37.5598 9.19384 39.9392 7.7256 42.3186 8.46428 45.4377 10.8437 46.906 13.2231 48.3742 16.3422 47.6355 17.8104 45.2562 18.8366 43.5932 18.8141 41.4881 17.7525 39.8475L22.4381 35.1619C24.8444 36.8336 28.0362 36.8336 30.4425 35.1619L35.1281 39.8419C33.6079 42.1884 34.2777 45.323 36.6241 46.8433 38.9707 48.3635 42.1053 47.6938 43.6256 45.3472 45.1459 43.0008 44.476 39.8661 42.1295 38.3459 40.4772 37.2753 38.354 37.2598 36.6862 38.3062L32.0625 33.6206C32.9905 32.4058 33.4926 30.9193 33.4912 29.3906 33.4892 28.9318 33.4441 28.4741 33.3563 28.0238L39.2681 25.605C40.2101 26.9629 41.7556 27.7755 43.4081 27.7819ZM43.4081 19.62C44.1941 19.62 44.8312 20.2571 44.8312 21.0431 44.8312 21.8291 44.194 22.4662 43.4081 22.4662 42.6221 22.4662 41.985 21.8291 41.985 21.0431 41.985 21.0413 41.985 21.0394 41.985 21.0375 41.9911 20.255 42.6256 19.623 43.4081 19.62ZM40.5956 24.2325C40.6012 24.0113 40.7067 23.8044 40.8825 23.67 41.3031 23.3698 41.7707 23.1417 42.2663 22.995 42.6466 22.8845 43.0402 22.8258 43.4362 22.8206 43.8327 22.8212 44.2269 22.8799 44.6063 22.995 45.1072 23.1275 45.5773 23.3567 45.99 23.67 46.1625 23.8066 46.2655 24.0126 46.2713 24.2325L46.2713 25.3125 40.5675 25.3125ZM9.68625 19.62C10.4722 19.62 11.1094 20.2571 11.1094 21.0431 11.1094 21.8291 10.4722 22.4662 9.68625 22.4662 8.90027 22.4662 8.26312 21.8291 8.26312 21.0431 8.26312 21.0413 8.26312 21.0394 8.26312 21.0375 8.26898 20.2658 8.8866 19.6382 9.65812 19.62ZM12.4987 25.3181 6.8175 25.3181 6.8175 24.2325C6.82307 24.0113 6.92854 23.8044 7.10437 23.67 7.52501 23.3698 7.99262 23.1417 8.48812 22.995 8.86849 22.8845 9.26207 22.8258 9.65812 22.8206 10.0546 22.8212 10.4488 22.8799 10.8281 22.995 11.329 23.1275 11.7992 23.3567 12.2119 23.67 12.3843 23.8066 12.4873 24.0126 12.4931 24.2325ZM13.5 39.4987C14.2829 39.4987 14.9175 40.1334 14.9175 40.9162 14.9175 41.6991 14.2829 42.3338 13.5 42.3338 12.7171 42.3338 12.0825 41.6991 12.0825 40.9162 12.0825 40.1334 12.7171 39.4987 13.5 39.4987ZM16.3125 45.1912 10.6875 45.1912 10.6875 44.1056C10.6925 43.8855 10.7957 43.6792 10.9688 43.5431 11.389 43.2436 11.8568 43.0173 12.3525 42.8737 12.7252 42.7619 13.111 42.6995 13.5 42.6881 13.8967 42.69 14.291 42.7507 14.67 42.8681 15.1707 42.9982 15.6409 43.2256 16.0538 43.5375 16.2268 43.6736 16.33 43.8799 16.335 44.1ZM26.4375 8.13937C27.2204 8.13937 27.855 8.77404 27.855 9.55688 27.855 10.3398 27.2203 10.9744 26.4375 10.9744 25.6568 10.9744 25.0231 10.3431 25.02 9.5625 25.0169 8.77967 25.649 8.14247 26.4319 8.13937 26.4337 8.13937 26.4356 8.13937 26.4375 8.13937ZM23.625 13.8319 23.625 12.7463C23.63 12.5261 23.7332 12.3198 23.9062 12.1838 24.3265 11.8842 24.7943 11.6579 25.29 11.5144 25.6627 11.4025 26.0485 11.3401 26.4375 11.3287 26.8342 11.3306 27.2285 11.3913 27.6075 11.5087 28.1082 11.6388 28.5784 11.8663 28.9913 12.1781 29.1643 12.3142 29.2675 12.5205 29.2725 12.7406L29.2725 13.8263ZM26.4375 25.0819C27.5279 25.0788 28.4144 25.9602 28.4175 27.0506 28.4206 28.141 27.5392 29.0275 26.4487 29.0306 25.3583 29.0337 24.4718 28.1523 24.4688 27.0619 24.4688 27.06 24.4688 27.0581 24.4688 27.0562 24.4688 25.968 25.3493 25.085 26.4375 25.0819ZM30.375 32.9963 22.5 32.9963 22.5 31.5C22.5075 31.192 22.6518 30.9033 22.8938 30.7125 23.4775 30.2932 24.1279 29.9756 24.8175 29.7731 25.3441 29.618 25.8887 29.5329 26.4375 29.52 26.9882 29.5216 27.5358 29.6031 28.0631 29.7619 28.7608 29.9431 29.415 30.2625 29.9869 30.7013 30.2297 30.8956 30.3722 31.1889 30.375 31.5ZM39.375 39.4987C40.1579 39.4987 40.7925 40.1334 40.7925 40.9162 40.7925 41.6991 40.1579 42.3338 39.375 42.3338 38.5921 42.3338 37.9575 41.6991 37.9575 40.9162 37.9575 40.1334 38.5921 39.4987 39.375 39.4987ZM36.5625 44.1056C36.5675 43.8855 36.6707 43.6792 36.8438 43.5431 37.264 43.2436 37.7318 43.0173 38.2275 42.8737 38.6002 42.7619 38.986 42.6995 39.375 42.6881 39.7717 42.69 40.166 42.7507 40.545 42.8681 41.0457 42.9982 41.5159 43.2256 41.9287 43.5375 42.1018 43.6736 42.205 43.8799 42.21 44.1L42.21 45.1856 36.5625 45.1856Z" fill="#000000" transform="matrix(1 0 0 1.01852 482 1244)"/></g></svg>