<svg width="65" height="64" xmlns="http://www.w3.org/2000/svg" xmlns:xlink="http://www.w3.org/1999/xlink" xml:space="preserve" overflow="hidden"><g transform="translate(-249 -1022)"><path d="M41.4667 36.4C44.2667 37.4 46.9333 38.5333 49.1333 40.3333 50.0667 41.0667 50.6 42.1333 50.6 43.3333L51.8 53.6667C51.8667 54.1333 51.6667 54.6 51.2667 54.8667L51.2667 54.8667C50.1333 55.6 48.9333 56.2 47.6667 56.6L47.6667 58.7333 49.4667 58.7333C50.6 58.2667 51.7333 57.7333 52.7333 57.0667L52.7333 57.0667C53.9333 56.2667 54.6 54.8 54.4 53.3333L53.3333 43.2667C53.2667 41.3333 52.4 39.5333 50.8667 38.3333 48.4 36.2667 45.4667 35 42.4 33.9333L39.1333 32.6C38.8667 32.4667 38.7333 32.2667 38.7333 32L38.7333 30.4C41.2667 28.4 42.7333 25.3333 42.7333 22.0667L42.7333 19.6667C43.1333 19.9333 43.6 20 44.0667 20.0667L42.9333 16.7333C42.8 16.2667 42.6667 15.8 42.6 15.3333 42.0667 11.5333 39.8 8.86667 36.6667 7.2 36.4 7.06667 36.0667 7.06667 35.8 7.26667L35.2 7.73333 34.5333 6.8C34.3333 6.53333 34.0667 6.26667 33.7333 6.2 33.1333 6.06667 32.5333 6 31.9333 6 26.6667 6 22.2667 10.1333 21.3333 15.5333L21.3333 16 21.3333 16 21.3333 17.1333C21.3333 18.6 21.0667 20 20.4667 21.3333L19.3333 24C19.3333 24 20.1333 23.8 21.4667 23.4 21.8 26.1333 23.2 28.6 25.3333 30.2667L25.3333 31.9333C25.3333 32.2 25.2 32.4667 24.9333 32.5333L21.6667 33.8667C18.6 34.9333 15.6667 36.2 13.2 38.2667 11.6667 39.4667 10.7333 41.2667 10.6667 43.2L9.53333 53.3333C9.33333 54.8 10 56.2667 11.2 57.0667 12.2 57.7333 13.3333 58.2667 14.4667 58.7333L16.3333 58.7333 16.3333 56.6667C15.0667 56.2 13.8667 55.6667 12.7333 54.9333 12.3333 54.6667 12.1333 54.2 12.2 53.7333L13.3333 43.4667 13.3333 43.3333C13.3333 42.1333 13.9333 41.0667 14.8667 40.3333 17.0667 38.5333 19.7333 37.4 22.5333 36.4L23.6 36.0667C25.5333 37.2667 28.6 38 32 38 35.4 38 38.4667 37.2667 40.4667 36.0667L41.4667 36.4ZM24 22.6C28.5333 21.0667 35.0667 18.4 38 14.6667 38.6 15.6 39.2667 16.4667 40 17.3333L40 22C40 26.4 36.4 30 32 30 27.8 30 24.3333 26.8 24 22.6ZM26.6667 34.6C27.4667 34 28 33 28 31.9333L28 31.8667C30.5333 32.9333 33.4667 32.9333 36 31.8667L36 31.9333C36 32.9333 36.4667 33.9333 37.2667 34.6 35.5333 35.1333 33.7333 35.4 31.9333 35.3333 30.2 35.3333 28.4 35.0667 26.6667 34.6Z" fill="#000000" transform="matrix(1.01562 0 0 1 249 1022)"/><path d="M46.4 43.5333C46.4 42.6 45.6667 41.8667 44.7333 41.8667L44.7333 41.8667 19.3333 41.8667C18.4 41.8667 17.6667 42.6 17.6667 43.5333L17.6667 43.5333 17.6667 60.1333 12.6 60.1333 12.6 61C12.6 61.9333 13.3333 62.6667 14.2667 62.6667L49.8 62.6667C50.7333 62.6667 51.4667 61.9333 51.4667 61L51.4667 60.1333 46.4 60.1333 46.4 43.5333ZM28.5333 54.5333 27.6 55.4667 23.8667 51.7333 27.6 48 28.5333 48.9333 25.7333 51.7333 28.5333 54.5333ZM31.0667 55.9333 29.8667 55.4 33 47.8667 34.2 48.4 31.0667 55.9333ZM36.4 55.5333 35.4667 54.6 38.2667 51.8 35.4667 49 36.4 48.0667 40.1333 51.8 36.4 55.5333Z" fill="#000000" transform="matrix(1.01562 0 0 1 249 1022)"/></g></svg>